<?xml version="1.0" standalone="no"?>
<!DOCTYPE svg PUBLIC "-//W3C//DTD SVG 1.1//EN" "http://www.w3.org/Graphics/SVG/1.1/DTD/svg11.dtd">
<svg xmlns="http://www.w3.org/2000/svg" version="1.1" style="display: block;" viewBox="0 0 2048 2048" width="2048" height="2048" preserveAspectRatio="none">
<path transform="translate(0,0)" fill="rgb(159,162,162)" d="M 0 0 L 2048 0 L 2048 2048 L 0 2048 L 0 0 z"/>
<path transform="translate(0,0)" fill="rgb(255,254,254)" d="M 1672.45 843.055 C 1676.67 842.741 1677.2 842.518 1681.1 843.792 C 1686 849.02 1682.4 867.309 1681.69 874.94 L 1676.86 926.809 L 1664.65 1061.27 C 1661.94 1090.02 1657.73 1125.9 1656.84 1154.2 C 1637.41 1161.87 1615.29 1166.88 1595.56 1174.29 C 1589.88 1176.42 1578.07 1179.94 1573.04 1175.85 C 1570.47 1169.1 1572.5 1158.34 1573.35 1150.83 C 1535.71 1178.25 1498.98 1192.84 1458.9 1160.49 L 1457.71 1159.36 C 1432.04 1135.02 1423.68 1102.09 1422.15 1067.39 C 1419.19 999.951 1466.87 936.398 1536.98 934.163 C 1559.55 933.443 1574.38 944.046 1589.94 959.293 C 1590.36 932.156 1593.83 889.922 1596.22 862.583 C 1611.22 856.578 1653.28 848.59 1672.45 843.055 z"/>
<path transform="translate(0,0)" fill="rgb(159,162,162)" d="M 1545.94 991.177 C 1569.17 989.382 1578.05 1000.62 1587.35 1019.61 C 1583.4 1042.93 1581.85 1072.62 1579.24 1096.79 C 1569.67 1110.17 1561.63 1116.63 1545.75 1121.67 C 1522.68 1126.12 1514.63 1120.81 1508.64 1097.05 C 1500.15 1063.38 1504.13 1001.04 1545.94 991.177 z"/>
<path transform="translate(0,0)" fill="rgb(255,254,254)" d="M 698.07 843.123 C 702.434 842.552 703.976 842.424 707.84 844.214 C 709.452 846.344 710.095 846.528 709.808 849.538 C 706.388 885.362 704.093 921.899 699.914 957.611 C 735.466 935.389 777.361 920.892 812.716 951.185 C 864.876 995.876 852.63 1098.53 811.708 1146.63 C 794.907 1166.38 774.65 1176.41 749.496 1178.35 C 721.366 1180.27 701.024 1166 681.033 1148.07 C 680.881 1149.87 680.124 1159.57 678.461 1160.39 C 659.308 1169.82 628.203 1172.59 606.741 1178.42 C 603.515 1179.3 599.857 1176.08 598.948 1175.17 C 596.379 1169.99 619.989 893.377 622.837 862.12 C 645.617 854.913 673.872 850.213 698.07 843.123 z"/>
<path transform="translate(0,0)" fill="rgb(159,162,162)" d="M 733.418 990.263 C 758.419 988.268 766.411 1008.49 768.614 1029.72 C 771.564 1058.15 760.825 1120.84 724.859 1123.6 C 707.428 1122.01 695.504 1113.78 686.624 1098.92 C 688.995 1081.91 689.546 1063.16 691.318 1045.98 C 691.947 1039.88 692.325 1029.36 693.549 1023.69 C 694.55 1018.99 696.536 1014.55 699.375 1010.67 C 707.815 998.971 719.341 992.602 733.418 990.263 z"/>
<path transform="translate(0,0)" fill="rgb(255,254,254)" d="M 973.041 930.43 C 1033.45 927.822 1103.26 948.621 1118.66 1015 C 1129.33 1061.03 1117.51 1112.55 1081.8 1144.84 C 1062.33 1162.44 1042.71 1170.14 1017.55 1176.12 C 952.676 1184.84 891.01 1162.32 873.956 1093.5 C 865.816 1061.18 870.916 1026.95 888.124 998.408 C 909.023 964.046 935.87 951.073 973.147 942.172 L 973.041 930.43 z"/>
<path transform="translate(0,0)" fill="rgb(159,162,162)" d="M 989.535 991.269 C 1047.05 987.131 1054.07 1054.19 1036.45 1093.88 C 1029.83 1108.79 1022.38 1116.47 1007.22 1122.41 C 944.754 1131.31 941.417 1051.33 962.727 1012.55 C 968.989 1001.16 977.056 994.562 989.535 991.269 z"/>
<path transform="translate(0,0)" fill="rgb(255,254,254)" d="M 1248.91 928.194 L 1251.29 928.626 C 1252.85 933.672 1248.74 953.317 1247.59 959.704 C 1278.23 943.724 1299.55 935.348 1334.46 934.033 C 1407.4 930.749 1394.99 1012.83 1389.21 1060.35 C 1385.3 1092.51 1382.06 1125.36 1381.88 1158 C 1371.46 1162.07 1313.88 1179.06 1304.83 1177.71 C 1300.41 1171.74 1305.09 1143.47 1305.7 1134.94 C 1308.65 1093.68 1316 1051.51 1315.25 1010.17 C 1310.53 969.72 1249.58 997.299 1243.94 1021.65 C 1240.89 1034.81 1239.48 1054.5 1238.36 1068.4 C 1236.15 1095.86 1230.78 1125.44 1230.97 1152.77 C 1216.78 1159.02 1200.15 1163.63 1185.4 1168.96 C 1177.01 1171.99 1155.06 1181.19 1147.83 1175.83 C 1145.8 1170.67 1163.35 965.417 1166.91 947.086 C 1174.85 943.954 1195.02 940.462 1204.71 938.57 C 1220.61 935.466 1233.22 932.458 1248.91 928.194 z"/>
<path transform="translate(0,0)" fill="rgb(255,254,254)" d="M 422.575 928.133 L 423.862 928.415 C 425.975 931.922 421.391 954.55 420.48 960.041 C 449.724 943.583 472.024 935.997 505.354 934.068 C 579.859 929.405 568.582 1010.2 562.506 1059 C 558.479 1091.35 554.828 1124.99 554.967 1157.76 C 534.567 1166 507.695 1171.17 486.271 1177.41 C 476.961 1180.12 474.798 1174.91 475.522 1166.58 C 476.509 1155.22 477.747 1143.6 478.883 1132.1 L 485.907 1060.61 C 487.498 1043.54 489.27 1024.79 487.99 1007.75 C 480.378 970.566 422.212 998.355 416.937 1021.86 C 413.683 1036.36 412.368 1055.03 411.074 1070.19 C 408.763 1097.27 404.508 1126.02 404.009 1153.01 C 394.045 1157.45 332.554 1179.1 324.042 1177.93 C 322.769 1176.98 320.93 1175.77 320.267 1174.24 C 318.608 1170.41 336.398 963.731 340.302 947.026 C 345.83 945.202 351.402 943.909 357.117 942.838 C 379.279 938.683 400.778 933.953 422.575 928.133 z"/>
<path transform="translate(0,0)" fill="rgb(255,254,254)" d="M 1725.74 942.144 C 1766.02 938.739 1812.87 945.209 1853.9 943.705 C 1861.42 943.429 1876.91 943.691 1883.55 946.985 C 1882.65 958.603 1825.48 1076.48 1816.97 1096.16 C 1831.68 1097.25 1872.46 1094.16 1881.47 1096.79 C 1884.15 1102.87 1872.01 1126.49 1868.5 1133.28 C 1861.58 1146.67 1859.11 1160.31 1843.52 1164.82 C 1827.2 1168.42 1728.33 1169.41 1714.58 1165.22 C 1710.9 1164.1 1707.71 1162.77 1705.87 1159.23 C 1706.96 1151.02 1727.96 1109.93 1732.71 1100.15 L 1779.07 1004.97 C 1765.19 1004.9 1704.27 1008.3 1696.47 1004.13 C 1695.37 999.605 1700.32 989.791 1702.55 985.606 C 1708.95 973.589 1712.95 947.587 1725.74 942.144 z"/>
<path transform="translate(0,0)" fill="rgb(255,254,254)" d="M 292.683 860.19 C 297.456 859.447 297.834 859.737 300.592 863.159 C 301.057 872.888 298.747 891.892 298.073 902.92 C 296.295 937.551 293.882 972.147 290.834 1006.69 L 282.815 1100.61 C 281.416 1117.82 280.23 1143.56 277.518 1160.08 C 268.899 1164.64 211.82 1180.3 200.321 1182.17 C 196.266 1181.62 196.407 1181.78 193.07 1179.52 C 189.802 1174.28 194.879 1125.16 195.521 1116.15 L 204.053 997.921 L 209.518 923.599 C 210.445 910.99 211.318 891.394 213.562 879.36 C 232.66 872.994 271.667 865.043 292.683 860.19 z"/>
</svg>